<svg xmlns="http://www.w3.org/2000/svg" viewBox="0 0 197.89 197.89"><defs><style>.cls-1{fill:#212427;}</style></defs><g id="Layer_2" data-name="Layer 2"><g id="Layer_1-2" data-name="Layer 1"><path class="cls-1" d="M98.82,45.87A15.68,15.68,0,1,0,83.27,30,15.64,15.64,0,0,0,98.82,45.87Zm.05-27.4A11.75,11.75,0,0,1,110.73,30.1a11.82,11.82,0,1,1-23.63.08A11.74,11.74,0,0,1,98.87,18.47Z"/><path class="cls-1" d="M177.54,0H20.35A20.37,20.37,0,0,0,0,20.35V197.89H197.89V20.35A20.37,20.37,0,0,0,177.54,0ZM20.35,7H177.54a13.37,13.37,0,0,1,13.35,13.35V53.68H7V20.35A13.37,13.37,0,0,1,20.35,7ZM79.94,190.89H52.37V79.67H74a5.92,5.92,0,0,1,5.92,5.91Zm-30.85,0H21.52V85.58a5.92,5.92,0,0,1,5.91-5.91H49.09Zm34,0V85.58a9,9,0,0,0-9-9H27.43a9,9,0,0,0-9,9V190.89H7V59.63H190.89V190.89Z"/><path class="cls-1" d="M170.75,76.72H108.12A8.12,8.12,0,0,0,100,84.83v70.74h78.85V84.83A8.12,8.12,0,0,0,170.75,76.72ZM102.8,100.58h73.11a.76.76,0,0,0,.16,0v14a.76.76,0,0,0-.16,0H102.8Zm0,17.21h73.11a.76.76,0,0,0,.16,0v14a.75.75,0,0,0-.16,0H102.8Zm5.32-38.28h62.63a5.32,5.32,0,0,1,5.32,5.32V97.34a.75.75,0,0,0-.16,0H102.8V84.83A5.33,5.33,0,0,1,108.12,79.51Zm-5.32,73.28V135h73.11a.75.75,0,0,0,.16,0v17.83Z"/></g></g></svg>