<svg xmlns="http://www.w3.org/2000/svg" viewBox="0 0 203.39 202.67"><defs><style>.cls-1{fill:#212427;}</style></defs><g id="Layer_2" data-name="Layer 2"><g id="Layer_1-2" data-name="Layer 1"><path class="cls-1" d="M203,91.12q-1.8-6-3.7-12c-1.4-4.47-3.88-6.27-8.54-6.28h-4.2V31c2.26,0,4.36,0,6.45,0,6.42-.15,9.57-5.58,6.49-11.17-2.71-4.93-5.58-9.77-8.15-14.77-1.87-3.65-4.6-5.06-8.66-5Q129.37.12,76.08.05c-.61,0-1.23,0-1.83,0a6.83,6.83,0,0,0-6,3.65C65.18,9.28,62,14.81,59,20.43a7,7,0,0,0,5.65,10.48c1.41.14,2.84.07,4.27.08,1.11,0,2.23,0,3.35,0V72.7c-.76,0-1.42.1-2.08.1H52.93q-20.25,0-40.48,0c-4,0-6.82,1.79-7.92,5.15C3,82.53,1.61,87.13.31,91.75a7.44,7.44,0,0,0,6.09,9.51l1.85.32c0,.6.11,1.13.11,1.66q0,11.58,0,23.18c0,5.7,0,44.36,0,50.05,0,.05,0,.08,0,.13q0,10.71,0,21.42c0,3.51,1.11,4.64,4.62,4.64q56.55,0,113.08,0v0h61.49c4.1,0,5.16-1.07,5.16-5.19V101.41c1.16,0,2,0,2.91,0C201.35,101.13,204.59,96.59,203,91.12ZM65.5,23.78c.42-.84.68-1.44,1-2,2.36-4.27,4.8-8.5,7.06-12.82a3,3,0,0,1,3.17-1.79q52.58.07,105.15,0a3.44,3.44,0,0,1,3.57,2.16c2.2,4.2,4.58,8.3,6.88,12.45.31.57.57,1.18,1,2h-9.54c-3.35,0-4.53,1.16-4.54,4.5q0,21,0,41.9V72.7H79.62v-44c0-3.85-1.08-4.91-5-4.91Zm73.48,137c0-5,3.36-8.27,8.3-8.34,3.33,0,6.65,0,10,0,6.16,0,9.28,3.1,9.28,9.22q0,16.81,0,33.62H139Q139,178.06,139,160.81Zm46.43,34.49H173.73v-2.58c0-10.72.05-21.43,0-32.14a15,15,0,0,0-15.2-15.22c-3.73-.05-7.46,0-11.19,0-9.13.05-15.55,6.53-15.55,15.71q0,16,0,31.93v2.32H15.49v-2.17q0-8.26,0-16.53v-.05c0-.54,0-1.08,0-1.62V101.46H185.41ZM7.07,94.1c1.43-4.62,2.75-9,4.21-13.36.14-.4,1.19-.71,1.81-.71Q32.62,80,52.14,80q68.75,0,137.48,0c1.95,0,2.72.56,3.19,2.38.84,3.28,1.93,6.49,2.91,9.73.18.62.32,1.26.51,2Z"/><path class="cls-1" d="M79.3,144.73c4.06,0,8.12,0,12.19,0s8.12,0,12.19,0c3.86,0,6.65-2.55,6.75-6.38q.21-8.53,0-17.07c-.1-3.86-2.88-6.34-6.76-6.35q-12.18,0-24.37,0c-4.16,0-6.85,2.7-6.88,6.88q-.06,8,0,16C72.44,142,75.14,144.69,79.3,144.73Zm.47-22.55H103.2v15.28H79.77Z"/><path class="cls-1" d="M30.33,144.73c4,0,8,0,12,0s8.12,0,12.19,0,6.85-2.71,6.87-6.88c0-5.35,0-10.7,0-16,0-4.19-2.69-6.88-6.85-6.89q-12.09,0-24.17,0c-4.23,0-6.9,2.52-7,6.76-.1,5.42-.09,10.84,0,16.25C23.45,142.17,26.1,144.7,30.33,144.73Zm.34-22.55H54.09v15.28H30.67Z"/><path class="cls-1" d="M142.48,58.28q11.88,0,23.77,0c4.46,0,7.13-2.59,7.19-7q.1-7.92,0-15.85c-.06-4.46-2.72-7-7.15-7-3.93,0-7.86,0-11.79,0s-8,0-12,0c-4.39,0-7.07,2.72-7.08,7.12q0,7.82,0,15.64C135.44,55.54,138.1,58.26,142.48,58.28Zm.29-22.58h23.41V50.94H142.77Z"/><path class="cls-1" d="M92.39,58.27q12,.06,24,0c4.34,0,7-2.66,7-7,.06-5.28.05-10.57,0-15.85,0-4.44-2.69-7.06-7.1-7.09-3.93,0-7.86,0-11.79,0s-8,0-12,0c-4.43,0-7.11,2.68-7.13,7.07,0,5.22,0,10.43,0,15.65C85.38,55.51,88,58.24,92.39,58.27Zm.28-22.54h23.45V51H92.67Z"/><path class="cls-1" d="M145.33,172.68a3.91,3.91,0,0,0-3.8,3.88,4,4,0,0,0,3.79,3.71,3.8,3.8,0,1,0,0-7.59Z"/></g></g></svg>